<svg xmlns="http://www.w3.org/2000/svg" viewBox="0 0 42.25 18.73"><g id="Layer_2" data-name="Layer 2"><g id="Layer_1-2" data-name="Layer 1"><path d="M.64,17a17.9,17.9,0,0,0,17.6-1.2,18,18,0,0,0,5.62-6.23A17.45,17.45,0,0,0,25.38,5.8a6.89,6.89,0,0,0,.29-4c-1-2.63-5.71-2-7.38-.46-2.16,2-2.7,5.93-3.12,8.66a5.1,5.1,0,0,0,.57,3.9A9.5,9.5,0,0,0,19,16.46a16.4,16.4,0,0,0,9,2,10.73,10.73,0,0,0,8.3-4.6,52.69,52.69,0,0,0,2.79-5l3-5.61C42.85,1.79,40.69.53,39.94,2L36.06,9.28c-1.1,2.08-2.13,4.35-4.25,5.57-4,2.3-9.81,1.09-13.3-1.69-1.15-.91-1.05-1.87-.81-3.21a34,34,0,0,1,.93-4,6.08,6.08,0,0,1,1.31-2.77,2.43,2.43,0,0,1,1.57-.6c.29,0,1.65-.16,1.85.12.37.51-.38,2.4-.55,2.93a15.11,15.11,0,0,1-1.38,3.1,15.24,15.24,0,0,1-4.3,4.74A15.34,15.34,0,0,1,1.91,14.82C.46,14.14-.81,16.3.64,17Z"/></g></g></svg>