<svg xmlns="http://www.w3.org/2000/svg" viewBox="0 0 22.75 19.03"><defs><style>.cls-1{fill:#231f20;}</style></defs><g id="Layer_2" data-name="Layer 2"><g id="Layer_1-2" data-name="Layer 1"><path class="cls-1" d="M8.44,1.35,1.7,17.44A1.26,1.26,0,0,0,2.58,19a1.29,1.29,0,0,0,1.54-.87L10.86,2A1.27,1.27,0,0,0,10,.48a1.29,1.29,0,0,0-1.54.87Z"/><path class="cls-1" d="M15.93,1.25c-.25,2.68-1.6,5.29-2.61,7.75-1.07,2.65-2.17,5.28-3.27,7.92a1.26,1.26,0,0,0,.87,1.54,1.29,1.29,0,0,0,1.54-.87c1.14-2.74,2.28-5.47,3.39-8.22s2.32-5.26,2.58-8.12a1.25,1.25,0,0,0-2.5,0Z"/><path class="cls-1" d="M1.59,8.06h20a1.25,1.25,0,0,0,0-2.5H1.59a1.25,1.25,0,0,0,0,2.5Z"/><path class="cls-1" d="M1.21,13.91H17.13a1.25,1.25,0,0,0,0-2.5H1.21a1.25,1.25,0,0,0,0,2.5Z"/></g></g></svg>