<svg xmlns="http://www.w3.org/2000/svg" viewBox="0 0 41.83 10.77"><g id="Layer_2" data-name="Layer 2"><g id="Layer_1-2" data-name="Layer 1"><path d="M2.28,8.82c.61-1.35,1.25-2.68,1.93-4A10.92,10.92,0,0,1,5.2,3c.26-.33.11-.31.5-.2a3.15,3.15,0,0,1,.85.65,15,15,0,0,1,4.39,6.25,1.26,1.26,0,0,0,2.28.3,28,28,0,0,1,1.9-3.15c.35-.5.73-1,1.13-1.45C16.47,5.1,17.19,4,17.53,4s1.78,2.25,2.11,2.7l2.53,3.47a1.28,1.28,0,0,0,2.29-.3A21.46,21.46,0,0,1,26,6.73a11.19,11.19,0,0,1,.93-1.42c.46-.57.54-.46,1,.06C29.54,7,30.86,9,32.77,10.29s3.23-.7,4.31-2.2L41.6,1.81C42.54.5,40.37-.75,39.44.55l-4.8,6.67a5.89,5.89,0,0,0-.56.78c-.38.79,0,0,.2.32A8.63,8.63,0,0,0,32.79,7a33.33,33.33,0,0,1-2.55-2.76c-1.26-1.54-3-2.73-4.77-1.07s-2.62,4-3.42,6l2.28-.3L21,4.26c-.87-1.21-1.76-3-3.51-2.89-1.51.14-2.65,1.82-3.51,2.9a27.6,27.6,0,0,0-2.87,4.44l2.29.3A16.85,16.85,0,0,0,7,.61C5.37-.4,4,.18,3,1.71A57,57,0,0,0,.12,7.56C-.54,9,1.62,10.28,2.28,8.82Z"/></g></g></svg>