<svg xmlns="http://www.w3.org/2000/svg" viewBox="0 0 36.11 22.68"><g id="Layer_2" data-name="Layer 2"><g id="Layer_1-2" data-name="Layer 1"><path d="M6,2.5A1.25,1.25,0,0,0,6,0,1.25,1.25,0,0,0,6,2.5Z"/><path d="M26.85,3.28a1.25,1.25,0,0,0,0-2.5,1.25,1.25,0,0,0,0,2.5Z"/><path d="M.3,12.84A26.72,26.72,0,0,0,18.12,22.5c3.43.38,7.54.29,10.55-1.57s4.62-4.89,7-7.2c1.17-1.11-.6-2.88-1.76-1.77-2.18,2.08-3.74,4.9-6.25,6.61C25,20.4,21.22,20.35,18.12,20A24.31,24.31,0,0,1,2.06,11.07c-1-1.26-2.76.52-1.76,1.77Z"/></g></g></svg>