<svg xmlns="http://www.w3.org/2000/svg" viewBox="0 0 39.02 52.84"><g id="Layer_2" data-name="Layer 2"><g id="Layer_1-2" data-name="Layer 1"><path d="M21.27,2.43c-1.38,2.21-2.83,4.38-4.36,6.48-.39.53-.79,1-1.17,1.57s.46-.58,0,0c-.22.28-.44.57-.67.85-.81,1-1.64,2-2.49,3a104.61,104.61,0,0,1-11.07,11c-3.76,3.22.23,10,4.87,8.36a10.37,10.37,0,0,1,1-.31l.41-.09c.37-.07.27-.06-.31,0,.31-.26,1.48,0,1.87,0,.7,0-1.11-.27.12,0l.82.19c.34.1.67.24,1,.33.55.13-.65-.37.17.06.58.29,1.15.59,1.7.93l.91.59c.09.07,1,.77.54.39s.53.45.52.43l.66.58c.54.48,1.08,1,1.6,1.49,4.44,4.27,8.77,8.66,13.15,13a5,5,0,0,0,7.07-7.07c-4.78-4.74-9.44-9.68-14.43-14.2C18,25.42,10.85,21.61,3.7,24.08l4.86,8.36a107.78,107.78,0,0,0,21.34-25A5,5,0,0,0,28.11.64a5.1,5.1,0,0,0-6.84,1.79Z"/></g></g></svg>