<svg xmlns="http://www.w3.org/2000/svg" viewBox="0 0 52.13 64.08"><defs><style>.cls-1{font-size:32px;stroke:#000;stroke-miterlimit:10;font-family:Sniglet-ExtraBold, Sniglet;font-weight:800;}</style></defs><g id="Layer_2" data-name="Layer 2"><g id="Layer_1-2" data-name="Layer 1"><text class="cls-1" transform="translate(16.72 42.97)">?</text><path d="M23.7.83c-6.5-2.1-11.55,4.51-15,9-3.87,5-7.45,10.48-8.4,16.82-1,6.68.8,13.47,3.63,19.51a33.83,33.83,0,0,0,11,13.47A24.45,24.45,0,0,0,31.24,64a20.34,20.34,0,0,0,14.62-8.29c3.35-4.56,4.79-10.29,5.53-15.82A67.25,67.25,0,0,0,51.54,21c-1-6.63-3.66-14.22-9.35-18.25S28.84,0,22.42,1.33c-3.15.67-1.81,5.5,1.33,4.83C28.25,5.2,33.64,4,38,6.08c4.65,2.21,6.9,8,8,12.72a52.6,52.6,0,0,1,.85,16.32c-.36,4.71-1,9.6-3,14C42.05,53.2,39,56.75,34.58,58.2a18.89,18.89,0,0,1-13.51-.83,25,25,0,0,1-10.6-9.65,35.29,35.29,0,0,1-5.38-14.9c-.63-6.38,1.79-12,5.37-17.11a61.1,61.1,0,0,1,5.61-7c1.58-1.68,3.81-3.86,6.3-3,3.07,1,4.38-3.83,1.33-4.82Z"/></g></g></svg>