<svg xmlns="http://www.w3.org/2000/svg" viewBox="0 0 28.74 50.28"><g id="Layer_2" data-name="Layer 2"><g id="Layer_1-2" data-name="Layer 1"><path d="M6.3,5a27.24,27.24,0,0,0,5.22,13,52.17,52.17,0,0,0,4.78,5.62c.75.78,1.53,1.53,2.32,2.27l.58.56c.38.41.37.37,0-.1a2.82,2.82,0,0,1-.29-2.17c.3-.61.36-.74.17-.41s-.1.21.25-.27a6.76,6.76,0,0,1-.52.55c-.16.16-1.44,1.22-.48.46-1.12.9-2.27,1.75-3.37,2.68Q12.35,29.31,10,31.69A83.5,83.5,0,0,0,.71,42.8C-.81,44.94.25,48.45,2.5,49.64a5.14,5.14,0,0,0,6.84-1.8q.75-1.05,1.53-2.1c.57-.76-.31.38.28-.36l.95-1.18c1.15-1.39,2.34-2.74,3.59-4.05a76.67,76.67,0,0,1,8-7.29l.18-.14.84-.66c.3-.23.59-.46.87-.71a10.37,10.37,0,0,0,2.11-2.56,7.43,7.43,0,0,0-.48-8.35,48.85,48.85,0,0,0-3.83-3.92C22.18,15.3,21.06,14,20,12.71c-.36-.44.13.16.16.21-.15-.22-.32-.43-.47-.65-.27-.38-.54-.77-.79-1.17a24.9,24.9,0,0,1-1.37-2.41l-.26-.54c-.29-.59-.18-.09,0,.11-.24-.22-.36-1-.46-1.3s-.27-.88-.37-1.33S16.14,3.76,16.3,5c-.34-2.58-2.06-5.13-5-5-2.42.11-5.36,2.23-5,5Z"/></g></g></svg>