<svg xmlns="http://www.w3.org/2000/svg" viewBox="0 0 77.45 69.69"><defs><style>.cls-1{fill:#231f20;}</style></defs><g id="Layer_2" data-name="Layer 2"><g id="Layer_1-2" data-name="Layer 1"><path class="cls-1" d="M3.06,12.07c5.62-1.81,11.56.42,16,4,4.89,4,8.69,9.3,12.38,14.38,3.92,5.39,7.35,11.06,11,16.6A26.66,26.66,0,0,0,48.69,54,22.67,22.67,0,0,0,56,57.49c6.13,1.71,12.65,1.37,18.92.87,2.37-.18,3.53-3.34,1.26-4.65a34.36,34.36,0,0,1-11.61-11c-1.74-2.69-6.07-.19-4.31,2.52A39.73,39.73,0,0,0,73.7,58L75,53.36c-5.46.44-11.13.84-16.51-.42a18.84,18.84,0,0,1-7.09-3.13,23.5,23.5,0,0,1-5.46-6.52c-3.61-5.74-7.27-11.4-11.31-16.85-3.83-5.18-7.75-10.55-12.87-14.54-5.59-4.35-13-6.91-20-4.65-3,1-1.74,5.81,1.33,4.82Z"/><path class="cls-1" d="M71.62,56.22a119.25,119.25,0,0,0-8.27,9.7,2.51,2.51,0,0,0,.89,3.42,2.56,2.56,0,0,0,1.93.26,3,3,0,0,0,1.49-1.15l-.07.09.27-.34.43-.54c.3-.39.61-.77.92-1.15.63-.78,1.28-1.56,1.94-2.32,1.3-1.52,2.63-3,4-4.43a2.5,2.5,0,1,0-3.54-3.54Z"/><path class="cls-1" d="M2.7,67.88c6.74.84,13.84-.21,19.6-4,5.18-3.39,9-8.42,12-13.76,5.94-10.55,8.9-24,19.23-31.45A29.75,29.75,0,0,1,73,13.14c2.38.16,3.54-3.67,1.26-4.66a11.74,11.74,0,0,1-6.51-6.64A2.57,2.57,0,0,0,64.65.09a2.52,2.52,0,0,0-1.74,3.08,16.53,16.53,0,0,0,8.81,9.63L73,8.14A34.33,34.33,0,0,0,54.4,12.25,36.64,36.64,0,0,0,40.74,25.78c-6.28,10.35-9,23.26-18.21,31.65-5.47,5-12.65,6.34-19.83,5.45a2.52,2.52,0,0,0-2.5,2.5,2.55,2.55,0,0,0,2.5,2.5Z"/><path class="cls-1" d="M71.83,9.46a20,20,0,0,0-7.37,8.32,2.67,2.67,0,0,0-.25,1.92,2.5,2.5,0,0,0,4.57.6,18.08,18.08,0,0,1,2-3.35l-.39.51a18.46,18.46,0,0,1,3.18-3.19l-.5.39c.4-.31.83-.6,1.26-.88a2.5,2.5,0,0,0-2.52-4.32Z"/></g></g></svg>