<svg xmlns="http://www.w3.org/2000/svg" viewBox="0 0 65.23 66.13"><defs><style>.cls-1{fill:#0a0a0b;}</style></defs><g id="Layer_2" data-name="Layer 2"><g id="Layer_1-2" data-name="Layer 1"><path class="cls-1" d="M29.81,0C26.05-.25,22.4,1.67,19,3.1s-6.79,3-10.11,4.73a2.5,2.5,0,1,0,2.52,4.32c3.1-1.58,6.23-3.06,9.42-4.43C23.62,6.53,26.73,4.8,29.81,5a2.52,2.52,0,0,0,2.5-2.5A2.55,2.55,0,0,0,29.81,0Z"/><path class="cls-1" d="M30.94,5.58c3.07-.29,6.12,1.54,8.77,2.89a82.28,82.28,0,0,1,8.62,5,2.5,2.5,0,0,0,2.53-4.32,86.38,86.38,0,0,0-9.24-5.32C38.36,2.23,34.7.23,30.94.58a2.57,2.57,0,0,0-2.5,2.5,2.51,2.51,0,0,0,2.5,2.5Z"/><path class="cls-1" d="M5.48,24.2a145.39,145.39,0,0,0,16.7.24,2.5,2.5,0,0,0,0-5,145.39,145.39,0,0,1-16.7-.24A2.51,2.51,0,0,0,3,21.7a2.55,2.55,0,0,0,2.5,2.5Z"/><path class="cls-1" d="M40,25c7.12-.67,14.48,1,21.37-1.52a2.56,2.56,0,0,0,1.75-3.07A2.53,2.53,0,0,0,60,18.61c-6.43,2.32-13.38.72-20,1.34a2.57,2.57,0,0,0-2.5,2.5A2.51,2.51,0,0,0,40,25Z"/><path class="cls-1" d="M.12,25c2,5.53,7.64,7.63,13.11,7.87,5.14.23,11-2.06,12.27-7.6A2.5,2.5,0,1,0,20.68,24a4.45,4.45,0,0,1-2.33,3,9.49,9.49,0,0,1-5.12.92c-3.05-.13-7.16-1.07-8.29-4.2a2.57,2.57,0,0,0-3.08-1.75A2.52,2.52,0,0,0,.12,25Z"/><path class="cls-1" d="M37.67,27.48a21.86,21.86,0,0,0,16.78,4.34,19.93,19.93,0,0,0,7.91-2.95,5.49,5.49,0,0,0,2.84-3.78,3.77,3.77,0,0,0-2.74-4.17c-3.12-.77-4.45,4-1.33,4.83-.52-.13-.85-.92-.85-1.39,0-.26.5-.43-.05-.08-.31.2-.64.44-1,.63a13.58,13.58,0,0,1-2.33,1.14,17.1,17.1,0,0,1-5.53,1.05A16.22,16.22,0,0,1,41.21,24a2.58,2.58,0,0,0-3.54,0,2.51,2.51,0,0,0,0,3.53Z"/><path class="cls-1" d="M6.49,20.33a21.59,21.59,0,0,1,3.94-10.22c.47-.65-.62-1.28-1.08-.63A22.85,22.85,0,0,0,5.24,20.33c-.09.8,1.16.8,1.25,0Z"/><path class="cls-1" d="M9.57,10.32a70.61,70.61,0,0,1,8.94,11.77c.42.68,1.5.05,1.08-.64a72.59,72.59,0,0,0-9.14-12c-.55-.58-1.43.3-.88.89Z"/><path class="cls-1" d="M41.43,21.61c-.34-2.36,2-4.46,3.49-5.91a29.52,29.52,0,0,1,5.8-4.25c.7-.39.07-1.47-.63-1.08a30.49,30.49,0,0,0-6.45,4.84c-1.82,1.78-3.82,4-3.41,6.73.12.79,1.32.46,1.2-.33Z"/><path class="cls-1" d="M50.26,11.34a17.23,17.23,0,0,1,8.23,9.23c.27.75,1.48.43,1.2-.33a18.46,18.46,0,0,0-8.8-10c-.71-.37-1.34.71-.63,1.08Z"/><path class="cls-1" d="M28,5a273.74,273.74,0,0,0,2.41,50.13,2.5,2.5,0,0,0,3.07,1.74,2.55,2.55,0,0,0,1.75-3.07A267.2,267.2,0,0,1,33,5c.14-3.21-4.86-3.21-5,0Z"/><path class="cls-1" d="M30.45,55.71l6.49,9.06a2.7,2.7,0,0,0,1.5,1.15,2.5,2.5,0,0,0,2.82-3.67l-6.5-9.06A2.71,2.71,0,0,0,33.27,52a2.6,2.6,0,0,0-1.93.25,2.53,2.53,0,0,0-.89,3.42Z"/><path class="cls-1" d="M39.34,60.91l-16.26.14a2.5,2.5,0,0,0,0,5l16.26-.14a2.5,2.5,0,0,0,0-5Z"/><path class="cls-1" d="M24.7,65.42,28,62.16a34,34,0,0,1,3-2.85l-.5.39A8.18,8.18,0,0,1,32,58.8a2.52,2.52,0,0,0,.89-3.42,2.56,2.56,0,0,0-3.42-.9,16.88,16.88,0,0,0-4.2,3.38l-4,4a2.5,2.5,0,1,0,3.53,3.54Z"/></g></g></svg>