<svg xmlns="http://www.w3.org/2000/svg" viewBox="0 0 208.18 251.6"><g id="Layer_2" data-name="Layer 2"><g id="Layer_1-2" data-name="Layer 1"><path d="M36,8.61c1.41-1.5,2.62-2.85,3.9-4.12A8.67,8.67,0,0,1,46.44,2c21.55.06,43.11.27,64.66,0C127.73,1.74,144.36.79,161,.19c3.32-.12,6.66-.29,10-.11,8.79.46,14.68,6.38,14.91,15.28.13,5.17-.39,10.36-.65,16.23,1.69-4.52,3.29-8.42,4.58-12.42a8.68,8.68,0,0,0-.1-4.17,8.69,8.69,0,0,1,5.4-10,8.31,8.31,0,0,1,10.28,3.86,16.5,16.5,0,0,1,1.17,13.54c-2.19,6.7-5,13.19-7.25,19.87A111.22,111.22,0,0,0,195,57.79c-1.5,8.32.66,16.33,3.22,24.21,2.8,8.6,5.84,17.13,8.34,25.81a40.76,40.76,0,0,1,1,18.77,25.36,25.36,0,0,1-9.27,15.79c-9,7.13-18.59,13.14-29.75,16.28-7,2-14.74,1.88-19.7,0-10.35,10.14-23,16.47-36.42,21.41-.57.21-1.32.95-1.33,1.45-.09,6.21-.06,12.43-.06,18.94h3q13,0,26-.09c1.33,0,2.67,0,4,.06,6.68.45,10.32,3.27,11.3,9.78,1.38,9.19,2.27,18.46,3.28,27.71.88,7.95-6.05,13.4-14,12.31-7.15-1-14.32-2.33-21.5-2.39-10.93-.09-21.88.6-32.8,1.31-7.12.47-14.2,1.62-21.3,2.38-7.48.79-12.65-3.41-12.75-10.89-.12-8.55.14-17.12.53-25.66.26-5.61,3-8.19,8.55-9.19a2.39,2.39,0,0,0,1.44-1.07c1.76-3.12,4.55-4.23,7.93-4.25,5.74,0,11.48,0,17.23,0,.57,0,1.14-.09,2-.17v-9.72c0-3.08.07-6.16,0-9.23a2.83,2.83,0,0,0-1.11-2.14C81,173.82,72.88,164.49,65.24,154.64l-.92-1.18c-3.45,5.51-8.12,5.31-13.47,3.4a35.19,35.19,0,0,0-8.55-1.37c-6.36-.58-12.83-.47-19.1-1.57C9.39,151.48.45,140.43,0,126.39c-.36-11.71,4-21.76,10.61-31,3.7-5.22,7.75-10.19,11.63-15.28,5.21-6.84,9.33-14.23,10.22-22.94a60.8,60.8,0,0,0-4.65-29.74c-.8-1.92-1.65-3.82-2.59-5.67-1.77-3.48-2-6.91.6-10S31.94,7.22,36,8.61ZM53.11,19.94A10.65,10.65,0,0,0,53,21.17c-.69,21.3-.69,42.57,2.61,63.71,2.46,15.77,6.74,31,14.19,45.16A98.67,98.67,0,0,0,94.64,160.9c4.68,3.84,9.79,4.64,15.32,1.95,3.89-1.88,7.73-3.85,11.66-5.64,12.3-5.61,20.08-15,24.38-27.77A473,473,0,0,0,168.32,26.5c.31-3,.46-6.06.67-8.81Zm2.52,119.72c-8.74-15.92-14.17-33.59-17.14-52.42-4.1,5.14-8,10-11.82,14.86-4.33,5.54-7.91,11.46-9.31,18.51-1.89,9.49,2.78,16.34,12.26,17.24C38.34,138.67,47.1,139.08,55.63,139.66Zm103.31,3.75c2.31-.47,4.44-.47,6.12-1.34,7-3.6,14-7.24,20.7-11.33,4.42-2.7,6-7.23,5.22-12.35a68.88,68.88,0,0,0-2-10.24c-2.63-8.47-5.58-16.85-8.34-25.28-.79-2.44-1.34-5-2-7.43C173.42,98.35,167.58,121,158.94,143.41Zm-20.07,74.26a3.81,3.81,0,0,0-.61-.19q-31.57.08-63.16.13c-1.56,0-1.79.92-1.85,2q-.36,6.22-.62,12.46a10.29,10.29,0,0,0,.26,1.79c22.58-2.86,45-4.84,67.84-1.66C140.09,227.18,139.48,222.42,138.87,217.67Z"/><path d="M101.42,77.81a51.55,51.55,0,0,1-5.34,2.26c-5.31,1.57-9.23-1-9.58-6.51A13,13,0,0,1,88,66.71c4.19-7.36,14.63-11.6,22.85-9.67A12.67,12.67,0,0,1,120.08,65c2.84,6.89,3.57,14.15,3.44,21.49a156.67,156.67,0,0,1-1.06,17.87c-.72,5.29-3.39,9.54-9.2,10.81-4.59,1-8.49-.7-11-4.8a20.2,20.2,0,0,1-2.72-11.49c.23-6.44,1.07-12.86,1.66-19.29C101.23,79,101.33,78.45,101.42,77.81Z"/></g></g></svg>