<svg xmlns="http://www.w3.org/2000/svg" viewBox="0 0 25.63 24.69"><defs><style>.cls-1{fill:#0a0a0b;}</style></defs><g id="Layer_2" data-name="Layer 2"><g id="Layer_1-2" data-name="Layer 1"><path class="cls-1" d="M11.76.38A11.63,11.63,0,0,0,.63,8.7,14.49,14.49,0,0,0,.4,16.32a7.91,7.91,0,0,0,5,5.77,33.56,33.56,0,0,0,8.52,2.34A14,14,0,0,0,21,24c5.07-2,5.07-8.49,4.25-13-.56-3.09-2.68-5.25-5.13-7A24.57,24.57,0,0,0,11.88.05a1.25,1.25,0,0,0-.66,2.41,22.47,22.47,0,0,1,6,2.57,13.5,13.5,0,0,1,4.81,4.38c1.05,1.86,1,4.21,1,6.28,0,1.89-.17,4.09-1.77,5.35-1.44,1.14-3.45,1.23-5.2,1.13a29.49,29.49,0,0,1-6.77-1.31c-2.07-.63-4.72-1.34-5.84-3.38a10.55,10.55,0,0,1-.83-6.32C3.3,6.6,7,2.75,11.76,2.88c1.61.05,1.61-2.45,0-2.5Z"/><path class="cls-1" d="M9.74,6q.16,3.78.06,7.56a1.26,1.26,0,0,0,1.25,1.25,1.28,1.28,0,0,0,1.25-1.25Q12.4,9.8,12.24,6a1.25,1.25,0,1,0-2.5,0Z"/><path class="cls-1" d="M12,14.74a27.1,27.1,0,0,1,2.3-2l-.25.19c.39-.3.79-.59,1.2-.88a1.37,1.37,0,0,0,.58-.74,1.32,1.32,0,0,0-.13-1A1.28,1.28,0,0,0,14,9.9,31.67,31.67,0,0,0,10.27,13a1.27,1.27,0,0,0,0,1.77,1.29,1.29,0,0,0,1.77,0Z"/></g></g></svg>