<svg xmlns="http://www.w3.org/2000/svg" viewBox="0 0 857.01 115.56"><defs><style>.cls-1{fill:#070706;}</style></defs><g id="Layer_2" data-name="Layer 2"><g id="Layer_1-2" data-name="Layer 1"><path class="cls-1" d="M302.86,50.29a77.63,77.63,0,0,1-12.64,50.12c-2.91,4.45-6.39,8.47-11.45,10.72a12.57,12.57,0,0,1-9.47.37c-2.15-.73-3.22-2.23-2.51-4.41,4.07-12.51,1.32-25.2,1.11-37.81-.17-10.79-1.26-21.54-1.16-32.35a98.31,98.31,0,0,0-2.89-26.12c-1.22-4.59.27-6.73,5-7.52,4.27-.7,8.59-1.07,12.88,0,8.59,2,13.45,8,16.55,15.77a66,66,0,0,1,4.53,23.06C302.91,44.81,302.86,47.55,302.86,50.29Zm-25.77,52.76a29.11,29.11,0,0,0,9.72-10.76c6.19-11.77,8.45-24.52,8.75-37.62.24-10.38-.32-20.75-4.89-30.39-3.22-6.78-7.87-11.89-15.94-12.66-1.57-.16-2.37,0-2.24,2,.71,11.67,1.28,23.36,1.83,35.05.62,13.09,1,26.2,1.79,39.29C276.39,92.84,276.13,97.77,277.09,103.05Z"/><path class="cls-1" d="M515.82,59.36c.33,9.43-1,19.66-1.77,29.91-.31,4.21-.08,8.47-1.25,12.61a23.2,23.2,0,0,1-5.14,9.52c-5.2,5.69-12,5.5-17-.31-4.38-5.06-6.68-11-7.91-17.44a241.06,241.06,0,0,1-4.49-52.71c.3-9.48.32-19.08,2.81-28.37a27.73,27.73,0,0,1,2.37-6c4.36-7.94,15.27-8.87,21.29-1.95C509.66,10.3,512,17,513.09,24.27A207.29,207.29,0,0,1,515.82,59.36ZM508.6,62.8c0-4.72.21-9.47-.07-14.18-.58-9.51-1.4-19-3.94-28.25a25.64,25.64,0,0,0-4.85-10C496.4,6.42,492,7,490,11.69a32.36,32.36,0,0,0-2.53,9.78c-.77,8-2.41,16-2.42,23.94a203.47,203.47,0,0,0,5.46,48.08c1.06,4.45,2.5,8.77,5.82,12.14,2.91,3,5.9,2.43,7.66-1.37a30,30,0,0,0,2.27-7.06A155.53,155.53,0,0,0,508.6,62.8Z"/><path class="cls-1" d="M344.86,99.05c0-2.66,0-5.32,0-8a2.51,2.51,0,0,0-2.41-2.86c-3.85-.61-7.71-1.19-11.51-2-2.49-.57-3.53.41-4.07,2.64-1.28,5.39-2.61,10.76-3.95,16.14a17,17,0,0,1-1.13,3.26,3.09,3.09,0,0,1-4.31,1.75c-2-.77-2.92-2.11-2.44-4.27,5.23-23.57,9.15-47.4,13.75-71.09,1.73-8.93,3.82-17.8,7.44-26.2.81-1.88,1.48-4,3.63-4.82,2.84-1.13,5.51.57,5.83,3.79,1.26,12.54,2.51,25.08,3.64,37.63,1.24,13.7,2.37,27.42,3.49,41.14.51,6.2.9,12.41,1.3,18.61a14.17,14.17,0,0,1-.17,3c-.4,2.73-2.12,4.21-4.7,4.12a4.76,4.76,0,0,1-4.35-4.57C344.79,104.54,344.86,101.79,344.86,99.05Zm-5.3-74.16a3.15,3.15,0,0,0-1.27,2.23,196.51,196.51,0,0,0-4.16,19.35c-1.59,10.05-3.39,20.08-5.1,30.11-.27,1.54.22,2.85,1.79,3a88.6,88.6,0,0,0,11.39,1.15c1.47,0,2.19-.58,2.11-2.07-.09-1.9-.12-3.81-.3-5.71-.9-9.65-1.86-19.29-2.76-28.94C340.67,37.74,340.14,31.43,339.56,24.89Z"/><path class="cls-1" d="M669.11,98.46c0-2.65,0-5.31,0-8a2.45,2.45,0,0,0-2.24-2.77c-4.24-.75-8.47-1.57-12.72-2.28-2-.34-2.57,1.15-3,2.65-1.53,5.9-3,11.81-4.53,17.72-.13.48-.33.94-.44,1.43-.44,2-1.53,2.86-3.6,2.36-3-.73-4-1.79-3.4-4.16,3.35-14.25,6-28.64,8.57-43,2.4-13.76,4.73-27.53,8.2-41.08a85,85,0,0,1,5-14.48c1.43-3.09,3.58-4.17,6.83-3.41,1.43.34,1.62,1.51,1.76,2.66.68,5.42,1.41,10.83,2,16.26q1.59,15.57,3,31.16c.79,9,1.42,18,2.11,27,.58,7.52,1.16,15,1.69,22.56a22,22,0,0,1-.07,4,4.64,4.64,0,0,1-4.84,4.36,4.79,4.79,0,0,1-4.21-4.72C669.05,104,669.12,101.2,669.11,98.46ZM663.8,24.2c-1.32,1.49-1.42,3-1.73,4.39-3.56,15.8-6.69,31.67-8.81,47.74-.23,1.74.4,2.52,2,2.72,3.37.42,6.75.88,10.13,1.14,3,.23,3.44-.11,3.19-3.15-.56-6.85-1.36-13.67-2-20.51C665.61,45.9,664.74,35.27,663.8,24.2Z"/><path class="cls-1" d="M616.93,27.91c0-7.81,0-15.62-.07-23.43,0-1.7.42-2.19,2.1-1.78a5.41,5.41,0,0,1,4.54,5.46c.24,3.9.39,7.8.52,11.7.71,22.15,1.53,44.3,2,66.46.17,7.54.82,15.08.35,22.63a4.84,4.84,0,0,1-1.4,3.37,3.47,3.47,0,0,1-6-1.67,13,13,0,0,1-.33-2.71c-.24-11.63-.43-23.25-.68-34.88-.09-4.39-.38-8.79-.46-13.18,0-1.64-.61-2.11-2.21-2-2.91.13-5.83.11-8.74,0-1.81,0-2.6.61-2.49,2.47.49,8.37,1,16.73,1.38,25.1.35,7.22.58,14.43.84,21.65a4,4,0,0,1-.18,1.47c-.4,1.12-.93,2.19-2.32,2.3s-2.13-.94-2.45-2.06A76.2,76.2,0,0,1,598.66,97c-2.45-21.48-2.94-43.06-3.41-64.65-.18-8.3-.2-16.6-.25-24.9,0-3.75.45-4.46,2.75-4.45,3.6,0,4.73,1.18,4.78,4.78.17,14.7.4,29.4.53,44.1,0,2,.81,2.69,2.7,2.48,3-.33,6.11-.81,9.17-.86,1.94,0,2.08-.82,2.07-2.38C616.92,43.36,617,35.63,616.93,27.91Z"/><path class="cls-1" d="M740,53.53v2.41q0,24.68.07,49.36a28.79,28.79,0,0,1-.26,3.71c-.28,2.22-1.68,3.16-3.82,3s-3.41-1.22-3.52-3.41c-.08-1.58-.08-3.16-.08-4.74q0-44.37.07-88.74,0-5.1.38-10.19c.2-2.77,1.31-3.56,4.12-3.34,7.12.56,12.16,4.11,15,10.61a32.71,32.71,0,0,1-.38,28.42A28,28,0,0,0,750,61.86c3.91,12.89,7.66,25.81,11.52,38.71a28.15,28.15,0,0,1,1.18,9.07c-.08,2.37-1.57,3.49-3.84,2.83-2.6-.76-4.47-2.42-4.68-5.22-1-13.84-5.37-26.88-9.42-40-1.32-4.24-2.56-8.51-3.86-12.77C740.74,54.12,740.72,53.64,740,53.53Zm-.17-9.74c1.91-1.95,4-3.45,4.56-5.84,1.39-6,2.92-12,2-18.17-.58-3.75-1.43-7.5-4.48-10.23-.41-.36-.73-1-1.42-.77s-.43,1-.45,1.55c-.08,4-.19,8-.2,12C739.77,29.3,739.8,36.32,739.82,43.79Z"/><path class="cls-1" d="M144,35.13a88.39,88.39,0,0,1,1.68-23.6c1-4.64,3-8,7.89-9.13s9.24.89,12.44,5.4c3.79,5.33,5.56,11.41,6.89,17.69,2.44,11.57,3.26,23.3,3.7,35.08.32,8.71.68,17.42-.1,26.12-.56,6.21-1.51,12.36-4.45,18-2.17,4.15-5.43,6.78-10.42,6.85a7.73,7.73,0,0,1-6.7-3.56c-3.91-5.31-5.32-11.48-6.46-17.79-1.35-7.42-2.69-14.83-3.35-22.34-.32-3.72-.58-7.45-.64-11.17C144.35,49.35,143.49,42.07,144,35.13Zm6.9-14.91c0,1.15,0,1.65,0,2.14,1,20.36,2,40.71,3.73,61,.49,5.89,1.37,11.66,3.78,17.13a7.52,7.52,0,0,0,2.42,3.37c2.21,1.57,3.93,1.13,4.92-1.39a46.65,46.65,0,0,0,2.7-10A162.46,162.46,0,0,0,170,58.22c-.94-14.59-2.3-29-7-43a17.74,17.74,0,0,0-5.52-8.3c-2.11-1.77-3.27-1.45-4.73.88C150.16,11.9,151.06,16.44,150.89,20.22Z"/><path class="cls-1" d="M223.43,72.47c.18,10.1-.3,19.78-3.47,29.11-1.2,3.54-3.13,6.57-6.51,8.48-4.68,2.65-9.32,1.64-12.51-2.68-3.92-5.3-5.28-11.53-6.5-17.78-4-20.33-4.1-40.91-3.69-61.51.09-4.48-.33-9,.46-13.43a38.75,38.75,0,0,1,1.44-5.24c1.3-3.92,3.81-6.62,8.06-7.21,5.06-.72,8.84,1.43,11.76,5.45,4.37,6,5.92,13,7.38,20.09,2,9.69,2.57,19.54,3.11,29.4C223.24,62.37,223.58,67.59,223.43,72.47Zm-6.84-3.17c0-17.89-1.09-32.33-4.31-46.56-1.23-5.46-2.93-10.68-6.58-15.08-1.1-1.32-2.33-2.38-4.23-2.09A4.32,4.32,0,0,0,197.92,9a9.13,9.13,0,0,0-.5,2.68c0,7.3-.24,14.61.19,21.91.6,10.35,1.13,20.71,1.83,31.05.56,8.25.58,16.57,2.55,24.69,1,4.09,2,8.19,3.08,12.24a4.05,4.05,0,0,0,4,3.22c2.2,0,3.22-1.44,3.76-3.34.25-.87.41-1.77.61-2.66C215.85,88,217,77,216.59,69.3Z"/><path class="cls-1" d="M380.1,38.61c.68-6.13,1.31-12.27,2.07-18.4a90.23,90.23,0,0,1,2.58-12.6c.88-3.22,2.9-4.59,5.29-4.07,1.9.41,2.43,1.65,2.22,3.29-.54,4.35-1,8.72-1.82,13-3.62,19.1-6.09,38.27-4.91,57.79.6,9.94.64,19.91,1,29.86.07,2.41-.24,4.39-3.08,5.17-3.9,1.07-5.87-.28-5.54-4.37a157.37,157.37,0,0,0,.39-18.42c-.46-13-1-26-3.08-38.91-1.36-8.4-4.48-16.41-6.48-24.68-1.48-6.09-2.71-12.24-4-18.38a4.37,4.37,0,0,1,2.44-4.77c1.8-1,3,.19,3.55,1.89a166.48,166.48,0,0,1,6.55,22.75c.7,3.63,1.48,7.23,2.22,10.84Z"/><path class="cls-1" d="M429,84.94c-.37-9.08-3.71-17.25-7.59-25.27-3.45-7.15-7.38-14.07-10-21.59s-4.2-14.93-2.25-22.71c1.38-5.52,4.06-10.31,9.36-13.16,5-2.69,9.51-.59,12.92,2a2,2,0,0,1,.76,2.65A5,5,0,0,1,428.47,9a1.58,1.58,0,0,1-.73-.14c-4.36-1.71-6.05-.92-9.1,4.29-2.95,5-2.1,10.42-1.15,15.76,1.6,9,5.91,16.86,10.2,24.7,5.69,10.38,9.66,21.26,10,33.14.28,9.56-2.32,18.32-9.88,24.8-5.5,4.73-13.58,3.94-19.3,1-1.76-.89-2.14-2.47-1.44-4.23a3.14,3.14,0,0,1,4-2.08,25.36,25.36,0,0,1,3.27,1.15c4.58,1.88,7.57.91,10.08-3.41A35.16,35.16,0,0,0,429,84.94Z"/><path class="cls-1" d="M543.29,2.6c1.42,0,2.83-.08,4.24,0,2.61.15,3.79,1.44,3.75,4s-1.18,3.46-3.83,3.55c-1.58.06-3.17,0-4.75,0-2.11,0-3.25.85-3.1,3.16.62,9.36,1.17,18.72,1.76,28.08.14,2.32.34,4.63.48,6.95.08,1.39.63,1.85,2.07,1.49A20.47,20.47,0,0,1,550,49c2.2.13,3.63,1.63,3.83,4.08.17,2.19-1.07,3.12-3,3.5-2.44.48-4.86,1.06-7.3,1.51-1.18.21-1.66.63-1.58,2,.83,14.24,1.59,28.49,2.37,42.73.08,1.41.36,2.81.36,4.21,0,2.78-1.41,4.32-3.94,4.49-2.7.18-4-.92-4.55-3.79-.83-4.26-.76-8.6-.93-12.89C534.4,73.18,533.75,51.61,533,30c-.23-6.38-.8-12.74-1.38-19.1-.5-5.41,2-8,7.46-8.31,1.42-.09,2.83-.16,4.24-.23Z"/><path class="cls-1" d="M701.45,93.86c-.72-22.57-1.39-45.14-2.2-67.7-.16-4.4-.3-8.8-.28-13.2,0-1.26.14-2.17-1.8-1.69s-3.9-.13-4.58-2.08.53-3.68,2.35-4.71a7.42,7.42,0,0,1,2.54-1c4.13-.5,8.26-1,12.41-1.28,2.56-.2,3.84,1,4.08,3.3s-.67,3.61-3.23,4.13l-.74.14c-4.61.65-4.68.65-4.46,5.26.8,16.91,1.72,33.82,2.46,50.73.51,11.36.85,22.73,1.12,34.1,0,1.92.52,2.68,2.48,2.57a11.57,11.57,0,0,1,3.19.39A3.94,3.94,0,0,1,718,107a3.66,3.66,0,0,1-3.43,3.44c-6.1.64-12.23,1.37-18.32-.28-3.13-.84-4.16-2-3.72-4.27.34-1.8,2.36-2.9,5-2.72,3.86.27,4.08.06,4.07-3.83,0-1.83,0-3.66,0-5.49Z"/><path class="cls-1" d="M117.61,112.59c-1.08,0-3.08,0-5.08,0s-2.94-1.17-3.12-3.14.76-2.91,2.56-3.31c4.31-1,4.29-1,4.06-5.4q-1.35-26.22-2.7-52.44c-.55-11.1-1-22.2-1.49-33.31-.23-5.24-1.6-6.64-6.77-6.65a13.66,13.66,0,0,1-3.2-.46A2.71,2.71,0,0,1,99.5,5.36a2.93,2.93,0,0,1,2.27-2.95A28.25,28.25,0,0,1,116.06,2c1.74.42,2.35,1.59,2.36,3.3,0,8.22.42,16.42,1,24.63q1.42,21.34,2.56,42.7.81,15,1.22,30.09c0,2.11.8,2.42,2.58,2.34a20.5,20.5,0,0,1,5.47.19c1.74.4,2.91,1.39,3,3.15s-1.23,2.38-2.63,2.86C127.35,112.71,122.92,112.46,117.61,112.59Z"/><path class="cls-1" d="M22.73,60.81c-5.73.44-11.46.88-17.18.17-.5-.06-1,0-1.49-.15-2.54-.55-4.17-2.16-4-4,.16-2.62,2.23-3.26,4.2-3.41,11.26-.86,22.53-1.83,33.85-1.07a8.27,8.27,0,0,1,4.58,1.72,3.18,3.18,0,0,1-.59,5.65,13.45,13.45,0,0,1-5.85,1.08C31.71,60.82,27.22,60.8,22.73,60.81Z"/><path class="cls-1" d="M49.62,46.36c-2.93-.28-5.57-1.51-8.23-2.63q-11.62-4.9-23.21-9.9a10.62,10.62,0,0,1-4.46-3c-1-1.31-1.81-2.66-.7-4.29a3.6,3.6,0,0,1,4.16-1.44,70.26,70.26,0,0,1,9.35,3.23C33.78,31,41.13,33.54,48,37.21a12.14,12.14,0,0,1,4.66,3.62c.74,1.1,1.33,2.33.53,3.7A3.54,3.54,0,0,1,49.62,46.36Z"/><path class="cls-1" d="M50.49,67.06A3.36,3.36,0,0,1,54,68.6c.82,1.36.36,2.54-.37,3.7-1.16,1.85-3.07,2.77-4.93,3.63Q35.1,82.18,21.15,87.62a10,10,0,0,1-4.36.87c-2.79-.21-4-2.46-2.76-5,1.07-2.1,3-3.29,5-4.28,9.47-4.71,19.44-8.2,29.34-11.83A11.8,11.8,0,0,1,50.49,67.06Z"/><path class="cls-1" d="M834,59.57c-4.1-.21-10.1.35-16.06-.48a13.39,13.39,0,0,1-2.18-.45c-1.61-.52-2.82-1.47-2.88-3.32s1.2-2.63,2.53-3.35c2.28-1.23,4.86-1.27,7.3-1.33A263,263,0,0,1,852.84,52a6.48,6.48,0,0,1,2.59.76,3.15,3.15,0,0,1,.11,5.4,7.71,7.71,0,0,1-4.41,1.43C846.06,59.53,841,59.56,834,59.57Z"/><path class="cls-1" d="M807.27,45.14c-1.75-.19-3-.73-3.61-2.21s.05-2.91,1.1-4.06c2.59-2.84,6.11-4.26,9.49-5.67,7.53-3.15,15.21-5.94,22.83-8.87a10.21,10.21,0,0,1,3.86-.8,3.11,3.11,0,0,1,3,1.74,2.93,2.93,0,0,1-.31,3.44,9.06,9.06,0,0,1-3.6,3q-14.44,6.86-29.39,12.54A32.42,32.42,0,0,1,807.27,45.14Z"/><path class="cls-1" d="M839.89,87c-2.88-.14-5.41-1.42-8-2.47-8.19-3.29-16.35-6.66-24.34-10.43A9.68,9.68,0,0,1,803.46,71c-.88-1.27-1.2-2.61-.3-3.93a3.3,3.3,0,0,1,3.7-1.38c5,1.14,9.68,3.3,14.48,5.07a143.37,143.37,0,0,1,16.42,6.93,14,14,0,0,1,4.94,3.69,3.61,3.61,0,0,1,.58,4A3.31,3.31,0,0,1,839.89,87Z"/></g></g></svg>