<svg xmlns="http://www.w3.org/2000/svg" viewBox="0 0 36.92 11.26"><g id="Layer_2" data-name="Layer 2"><g id="Layer_1-2" data-name="Layer 1"><path d="M3.1,6.43H32a1.25,1.25,0,0,0,0-2.5H3.1a1.25,1.25,0,0,0,0,2.5Z"/><path d="M35.75,4.8,32.24.37A1.23,1.23,0,0,0,31.36,0a1.28,1.28,0,0,0-.89.37,1.21,1.21,0,0,0-.36.88,1.38,1.38,0,0,0,.36.88L34,6.56a1.24,1.24,0,0,0,.89.37,1.26,1.26,0,0,0,1.25-1.25,1.45,1.45,0,0,0-.37-.88Z"/><path d="M36,4.6c-3-.7-5.43,1.5-7.2,3.62a1.26,1.26,0,0,0,0,1.76,1.25,1.25,0,0,0,1.76,0c.38-.45.77-.89,1.19-1.31.21-.2.42-.4.64-.59a2.78,2.78,0,0,1,.33-.27c-.23.14,0,0,0,0A1.33,1.33,0,0,1,33,7.67a6.31,6.31,0,0,1,.71-.42l.16-.08c.27-.12-.17.06,0,0l.38-.13A1.84,1.84,0,0,0,34.61,7s-.25,0-.07,0h.22a2.54,2.54,0,0,1,.39,0c.19,0,0,0-.06,0a2,2,0,0,0,.26,0A1.25,1.25,0,0,0,36,4.6Z"/><path d="M2.13,5.42l3.05-3a1.26,1.26,0,0,0,0-1.77,1.28,1.28,0,0,0-1.77,0l-3.05,3a1.27,1.27,0,0,0,0,1.77,1.28,1.28,0,0,0,1.77,0Z"/><path d="M.51,6.78a8.09,8.09,0,0,0,3.2,4.31,1.31,1.31,0,0,0,1,.12,1.25,1.25,0,0,0,.74-.57A1.27,1.27,0,0,0,5,8.93L4.66,8.7l.25.2A7,7,0,0,1,3.69,7.68l.2.25A6.92,6.92,0,0,1,3,6.44l.13.3a5.85,5.85,0,0,1-.23-.63,1.26,1.26,0,0,0-1.54-.87A1.26,1.26,0,0,0,.51,6.78Z"/></g></g></svg>