<svg xmlns="http://www.w3.org/2000/svg" viewBox="0 0 114.32 158.72"><g id="Layer_2" data-name="Layer 2"><g id="Layer_1-2" data-name="Layer 1"><path d="M59.25,102.65c-2.74,6.22-5.11,11.87-7.7,17.42-4.47,9.56-9.07,19.08-15.73,27.37-8.06,10-18.46,13.32-30.91,10.07C0,156.24-.74,154.86.56,150c1.59-6,4.8-11.12,8.27-16.09,9-12.87,18.11-25.64,27.07-38.52,2-2.85,3.54-6,5.25-9,4.44-7.87,4.15-15.89.58-23.94-3.7-8.36-9.12-15.6-14.95-22.55C21.32,33.35,16.09,26.68,12.9,18.7a65.82,65.82,0,0,1-2.22-7.89c-.64-2.53.38-4.13,2.69-5.38C21,1.36,32,2.77,39,8.86c5.71,4.94,9.52,11.3,13,17.82C55,32.15,57.35,37.91,60,43.54l1.79,3.8c1.93-4.27,3.64-7.93,5.24-11.63C70.78,27,74.73,18.4,80.74,11a43.9,43.9,0,0,1,6.45-6.55c7.48-6,15.84-4.9,24.16-2.3,2.89.9,3.76,3.45,2.21,6.28q-5.07,9.29-10.64,18.29C95.57,38.52,88,50.22,80.66,62.07a100.7,100.7,0,0,0-4.82,9.84,9.39,9.39,0,0,0,.21,8.81Q87,102.08,97.69,123.54c1.77,3.53,3,7.31,4.81,10.84a70.58,70.58,0,0,0,4.28,6.68c1.09,1.66,2.35,3.24,3.27,5,1.66,3.14,1,5.27-2.36,6.56a28.8,28.8,0,0,1-8.85,2.19,70.46,70.46,0,0,1-13.13-.86c-4-.59-4.77-1.8-5-5.84a39.05,39.05,0,0,0-5.32-18.48Z"/></g></g></svg>